# Blender v2.76 (sub 0) OBJ File: ''
# www.blender.org
o Icosphere.002_Icosphere.003
v 0.276388 5.216889 0.850649
v -0.723607 5.216889 0.525725
v -0.723607 5.216889 -0.525725
v 0.276388 5.216889 -0.850649
v 0.894426 5.216885 0.000000
v 0.000000 5.769670 0.000000
v 0.951058 4.769670 0.309013
v 0.951058 4.769670 -0.309013
v 0.000000 4.769670 1.000000
v 0.587786 4.769670 0.809017
v -0.951058 4.769670 0.309013
v -0.587786 4.769670 0.809017
v -0.587786 4.769670 -0.809017
v -0.951058 4.769670 -0.309013
v 0.587786 4.769670 -0.809017
v 0.000000 4.769670 -1.000000
v 0.688189 5.295406 0.499997
v -0.262869 5.295407 0.809012
v -0.850648 5.295405 0.000000
v -0.262869 5.295407 -0.809012
v 0.688189 5.295406 -0.499997
v 0.162456 5.620324 0.499995
v 0.525730 5.620321 0.000000
v -0.425323 5.620324 0.309011
v -0.425323 5.620324 -0.309011
v 0.162456 5.620324 -0.499995
v 0.951058 0.000000 0.309013
v 0.951058 0.000000 -0.309013
v 0.000000 0.000000 1.000000
v 0.587786 0.000000 0.809017
v -0.951058 0.000000 0.309013
v -0.587786 0.000000 0.809017
v -0.587786 0.000000 -0.809017
v -0.951058 0.000000 -0.309013
v 0.587786 0.000000 -0.809017
v 0.000000 0.000000 -1.000000
v 0.951058 2.759930 -0.309013
v 0.951058 1.803239 -0.309013
v 0.951058 1.803239 0.309013
v 0.951058 2.759930 0.309013
v -0.951058 2.759930 -0.309013
v -0.951058 1.803239 -0.309013
v -0.587786 1.803239 -0.809017
v -0.587786 2.759930 -0.809017
v 0.587786 1.803239 0.809017
v 0.587786 2.759930 0.809017
v 0.000000 2.759930 1.000000
v 0.000000 1.803239 1.000000
v -0.587786 1.803239 0.809017
v -0.587786 2.759930 0.809017
v -0.951058 1.803239 0.309013
v -0.951058 2.759930 0.309013
v 0.000000 1.803239 -1.000000
v 0.000000 2.759930 -1.000000
v 0.587786 2.759930 -0.809017
v 0.587786 1.803239 -0.809017
v 0.828402 2.759930 -0.269160
v 0.828402 1.803239 -0.269160
v 0.828402 1.803239 0.269160
v 0.828402 2.759930 0.269160
v -0.828402 2.759930 -0.269160
v -0.828402 1.803239 -0.269160
v -0.511980 1.803239 -0.704679
v -0.511980 2.759930 -0.704679
v 0.511980 1.803239 0.704679
v 0.511980 2.759930 0.704679
v -0.000000 2.759930 0.871032
v -0.000000 1.803239 0.871032
v -0.511980 1.803239 0.704679
v -0.511980 2.759930 0.704679
v -0.828402 1.803239 0.269160
v -0.828402 2.759930 0.269160
v -0.000000 1.803239 -0.871032
v -0.000000 2.759930 -0.871032
v 0.511980 2.759930 -0.704679
v 0.511980 1.803239 -0.704679
v 0.951058 0.000000 0.309013
v 0.951058 0.000000 -0.309013
v 0.000000 0.000000 1.000000
v 0.587786 0.000000 0.809017
v -0.951058 0.000000 0.309013
v -0.587786 0.000000 0.809017
v -0.587786 0.000000 -0.809017
v -0.951058 0.000000 -0.309013
v 0.587786 0.000000 -0.809017
v 0.000000 0.000000 -1.000000
v 0.951058 2.759930 -0.309013
v 0.951058 1.803239 -0.309013
v 0.951058 1.803239 0.309013
v 0.951058 2.759930 0.309013
v -0.951058 2.759930 -0.309013
v -0.951058 1.803239 -0.309013
v -0.587786 1.803239 -0.809017
v -0.587786 2.759930 -0.809017
v 0.587786 1.803239 0.809017
v 0.587786 2.759930 0.809017
v 0.000000 2.759930 1.000000
v 0.000000 1.803239 1.000000
v -0.587786 1.803239 0.809017
v -0.587786 2.759930 0.809017
v -0.951058 1.803239 0.309013
v -0.951058 2.759930 0.309013
v 0.000000 1.803239 -1.000000
v 0.000000 2.759930 -1.000000
v 0.587786 2.759930 -0.809017
v 0.587786 1.803239 -0.809017
v -3.374635 0.016949 3.000000
v 2.625365 0.016949 3.000000
v -3.374635 0.016949 -3.000000
v 2.625365 0.016949 -3.000000
vt 0.882705 0.214355
vt 0.996703 0.214355
vt 0.996703 0.328353
vt 0.882705 0.328353
vt 0.844848 0.692633
vt 0.855489 0.759063
vt 0.806076 0.716658
vt 0.606350 0.059931
vt 0.541060 0.058315
vt 0.574915 0.007465
vt 0.267208 0.314013
vt 0.332106 0.321388
vt 0.293960 0.369053
vt 0.037670 0.685153
vt 0.101678 0.698230
vt 0.059535 0.742344
vt 0.112415 0.063390
vt 0.050693 0.050247
vt 0.112415 0.007465
vt 0.800204 0.793321
vt 0.726046 0.811381
vt 0.750792 0.750916
vt 0.775458 0.853786
vt 0.708691 0.853786
vt 0.686087 0.745881
vt 0.661340 0.806346
vt 0.166968 0.696614
vt 0.135534 0.749081
vt 0.735548 0.687340
vt 0.670842 0.682305
vt 0.397004 0.314013
vt 0.370252 0.369053
vt 0.790832 0.653081
vt 0.477052 0.071392
vt 0.498916 0.014201
vt 0.174137 0.050247
vt 0.074269 0.119471
vt 0.012546 0.113369
vt 0.007407 0.053009
vt 0.069461 0.628590
vt 0.145461 0.635327
vt 0.293960 0.254860
vt 0.370252 0.254860
vt 0.584843 0.121219
vt 0.508843 0.127955
vt 0.212284 0.113369
vt 0.217423 0.053009
vt 0.150561 0.119471
vt 0.007407 0.629664
vt 0.232237 0.261410
vt 0.431975 0.261410
vt 0.446788 0.126881
vt 0.212284 0.361115
vt 0.150561 0.367217
vt 0.090968 0.382146
vt 0.166968 0.388883
vt 0.232237 0.014014
vt 0.293960 0.007465
vt 0.370252 0.007465
vt 0.431975 0.014014
vt 0.028914 0.383220
vt 0.530350 0.374399
vt 0.468296 0.373325
vt 0.074269 0.367217
vt 0.012546 0.361115
vt 0.606350 0.367663
vt 0.069129 0.985986
vt 0.007407 0.992535
vt 0.007407 0.770560
vt 0.069129 0.764010
vt 0.696408 0.389329
vt 0.758130 0.395879
vt 0.758130 0.617854
vt 0.696408 0.611304
vt 0.584803 0.875371
vt 0.508511 0.875371
vt 0.508511 0.653081
vt 0.584803 0.653081
vt 0.145422 0.985986
vt 0.145422 0.764010
vt 0.258892 0.869711
vt 0.197169 0.876261
vt 0.197169 0.654285
vt 0.258892 0.647735
vt 0.396907 0.876261
vt 0.335184 0.869711
vt 0.335184 0.647735
vt 0.396907 0.654285
vt 0.834423 0.395878
vt 0.834424 0.617854
vt 0.446788 0.881473
vt 0.446788 0.659183
vt 0.646526 0.881473
vt 0.646526 0.659183
vt 0.916585 0.986482
vt 0.862823 0.992187
vt 0.862823 0.874420
vt 0.916585 0.868715
vt 0.715102 0.992187
vt 0.661340 0.986482
vt 0.661340 0.868715
vt 0.715102 0.874420
vt 0.870302 0.707265
vt 0.875576 0.653081
vt 0.992593 0.653081
vt 0.987320 0.707265
vt 0.796369 0.992187
vt 0.796369 0.874420
vt 0.971750 0.443512
vt 0.971750 0.510486
vt 0.854898 0.510486
vt 0.854898 0.443512
vt 0.966089 0.564669
vt 0.849237 0.564669
vt 0.781556 0.992187
vt 0.781556 0.874420
vt 0.875576 0.828422
vt 0.870302 0.774238
vt 0.987320 0.774238
vt 0.992593 0.828422
vt 0.966089 0.389329
vt 0.849237 0.389329
vt 0.446788 0.475295
vt 0.491632 0.413090
vt 0.564191 0.389329
vt 0.636750 0.413089
vt 0.681594 0.475295
vt 0.681594 0.552186
vt 0.636751 0.614391
vt 0.564192 0.638152
vt 0.491632 0.614392
vt 0.446788 0.552186
vt 0.197169 0.469949
vt 0.242013 0.407743
vt 0.314572 0.383982
vt 0.387132 0.407744
vt 0.431975 0.469949
vt 0.431975 0.546840
vt 0.387131 0.609046
vt 0.314571 0.632806
vt 0.242012 0.609045
vt 0.197169 0.546840
vt 0.666007 0.232528
vt 0.621163 0.170322
vt 0.621163 0.093431
vt 0.666006 0.031226
vt 0.738566 0.007465
vt 0.811125 0.031225
vt 0.855969 0.093431
vt 0.855969 0.170322
vt 0.811126 0.232527
vt 0.738567 0.256288
vn 0.000000 1.000000 0.000000
vn 0.276400 0.447200 0.850600
vn 0.688200 0.525700 0.500000
vn 0.162500 0.850600 0.500000
vn -0.723600 0.447200 0.525700
vn -0.262900 0.525700 0.809000
vn -0.425300 0.850600 0.309000
vn -0.723600 0.447200 -0.525700
vn -0.850600 0.525700 0.000000
vn -0.425300 0.850600 -0.309000
vn 0.276400 0.447200 -0.850600
vn -0.262900 0.525700 -0.809000
vn 0.162500 0.850600 -0.500000
vn 0.894400 0.447200 0.000000
vn 0.688200 0.525700 -0.500000
vn 0.525700 0.850600 0.000000
vn 0.942900 0.109500 -0.314400
vn 0.590400 0.109500 -0.799600
vn -0.007600 0.109500 -0.993900
vn -0.578100 0.109500 -0.808600
vn -0.947700 0.109500 -0.299900
vn -0.947700 0.109500 0.299900
vn -0.578100 0.109500 0.808600
vn -0.007600 0.109500 0.993900
vn 0.590400 0.109500 0.799600
vn 0.942900 0.109500 0.314400
vn 0.587800 0.000000 0.809000
vn 0.951000 0.000000 0.309000
vn 0.000000 0.000000 -1.000000
vn -0.587800 0.000000 -0.809000
vn -0.951000 0.000000 -0.309000
vn -0.951000 0.000000 0.309000
vn -0.587800 0.000000 0.809000
vn 0.587800 0.000000 -0.809000
vn 0.000000 0.000000 1.000000
vn 0.951000 0.000000 -0.309000
vn 0.000000 -1.000000 0.000000
s off
f 107/1/1 108/2/1 110/3/1 109/4/1
s 1
f 1/5/2 17/6/3 22/7/4
f 2/8/5 18/9/6 24/10/7
f 3/11/8 19/12/9 25/13/10
f 4/14/11 20/15/12 26/16/13
f 5/17/14 21/18/15 23/19/16
f 23/20/16 26/21/13 6/22/1
f 23/20/16 21/23/15 26/21/13
f 21/23/15 4/24/11 26/21/13
f 26/21/13 25/25/10 6/22/1
f 26/21/13 20/26/12 25/25/10
f 20/15/12 3/27/8 25/28/10
f 25/25/10 24/29/7 6/22/1
f 25/25/10 19/30/9 24/29/7
f 19/12/9 2/31/5 24/32/7
f 24/29/7 22/7/4 6/22/1
f 24/29/7 18/33/6 22/7/4
f 18/9/6 1/34/2 22/35/4
f 22/7/4 23/20/16 6/22/1
f 22/7/4 17/6/3 23/20/16
f 17/36/3 5/17/14 23/19/16
f 8/37/17 21/18/15 5/17/14
f 8/37/17 15/38/18 21/18/15
f 15/38/18 4/39/11 21/18/15
f 16/40/19 20/15/12 4/14/11
f 16/40/19 13/41/20 20/15/12
f 13/41/20 3/27/8 20/15/12
f 14/42/21 19/12/9 3/11/8
f 14/42/21 11/43/22 19/12/9
f 11/43/22 2/31/5 19/12/9
f 12/44/23 18/9/6 2/8/5
f 12/44/23 9/45/24 18/9/6
f 9/45/24 1/34/2 18/9/6
f 10/46/25 17/36/3 1/47/2
f 10/46/25 7/48/26 17/36/3
f 7/48/26 5/17/14 17/36/3
f 15/49/18 16/40/19 4/14/11
f 13/50/20 14/42/21 3/11/8
f 11/43/22 12/51/23 2/31/5
f 9/45/24 10/52/25 1/34/2
f 7/48/26 8/37/17 5/17/14
f 7/48/26 10/46/25 46/53/27 40/54/28
f 13/41/20 16/40/19 54/55/29 44/56/30
f 14/42/21 13/50/20 44/57/30 41/58/31
f 12/51/23 11/43/22 52/59/32 50/60/33
f 16/40/19 15/49/18 55/61/34 54/55/29
f 11/43/22 14/42/21 41/58/31 52/59/32
f 10/52/25 9/45/24 47/62/35 46/63/27
f 15/38/18 8/37/17 37/64/36 55/65/34
f 9/45/24 12/44/23 50/66/33 47/62/35
f 53/67/29 56/68/34 35/69/34 36/70/29
f 45/71/27 48/72/35 29/73/35 30/74/27
f 38/75/36 39/76/28 27/77/28 28/78/36
f 43/79/30 53/67/29 36/70/29 33/80/30
f 42/81/31 43/82/30 33/83/30 34/84/31
f 49/85/33 51/86/32 31/87/32 32/88/33
f 48/72/35 49/89/33 32/90/33 29/73/35
f 39/76/28 45/91/27 30/92/27 27/77/28
f 51/86/32 42/81/31 34/84/31 31/87/32
f 56/93/34 38/75/36 28/78/36 35/94/34
f 8/37/17 7/48/26 40/54/28 37/64/36
f 76/95/34 73/96/29 74/97/29 75/98/34
f 68/99/35 65/100/27 66/101/27 67/102/35
f 58/103/36 76/104/34 75/105/34 57/106/36
f 73/96/29 63/107/30 64/108/30 74/97/29
f 62/109/31 71/110/32 72/111/32 61/112/31
f 71/110/32 69/113/33 70/114/33 72/111/32
f 69/115/33 68/99/35 67/102/35 70/116/33
f 65/117/27 59/118/28 60/119/28 66/120/27
f 63/121/30 62/109/31 61/112/31 64/122/30
f 59/118/28 58/103/36 57/106/36 60/119/28
f 78/123/37 77/124/37 80/125/37 79/126/37 82/127/37 81/128/37 84/129/37 83/130/37 86/131/37 85/132/37
f 106/133/1 103/134/1 93/135/1 92/136/1 101/137/1 99/138/1 98/139/1 95/140/1 89/141/1 88/142/1
f 104/143/37 105/144/37 87/145/37 90/146/37 96/147/37 97/148/37 100/149/37 102/150/37 91/151/37 94/152/37
